# xmcd
#
# Track frame offsets: 
#        150
#        19395
#        40510
#        61052
#        71467
#        88025
#        109587
#        129070
#        146737
#        173352
#        192397
#        217175
#        238265
#
# Disc length: 3511 seconds
#
# Revision: 1
# Processed by: cddbd v1.5.2PL0 Copyright (c) Steve Scherf et al.
# Submitted via: ExactAudioCopy v0.99pb5
#
DISCID=b00db50d
DTITLE=Joachim Kühn - Michael Gibbs - Europeana Jazzphony No. 1
DYEAR=2006
DGENRE=Jazz
TTITLE0=Castle In Heaven
TTITLE1=Black Is The Colour Of My True Love's Hair
TTITLE2=The Shepherd Of Breton
TTITLE3=The Ingrian Rune Song
TTITLE4=The Groom's Sister
TTITLE5=Norwegian Psalm
TTITLE6=Three Angels
TTITLE7=Heaven Has Created
TTITLE8=She Moved Through The Fair
TTITLE9=Crebe De Chet
TTITLE10=Midnight Sun
TTITLE11=Londonderry Air
TTITLE12=Otra Jazzpana
EXTD=YEAR: 1995
EXTT0=
EXTT1=
EXTT2=
EXTT3=
EXTT4=
EXTT5=
EXTT6=
EXTT7=
EXTT8=
EXTT9=
EXTT10=
EXTT11=
EXTT12=
PLAYORDER=
